<svg xmlns="http://www.w3.org/2000/svg" viewBox="0 0 250 250"><defs><style>.cls-1{fill:#ffd592;}.cls-2{opacity:0.2;}.cls-3{fill:#ba6213;}.cls-4{fill:#080c0d;}.cls-5{fill:#fff;}.cls-6{fill:#191919;}.cls-7{opacity:0.1;}.cls-8{fill:#8e3b32;}.cls-9{fill:#441913;}.cls-10{opacity:0.4;}.cls-11{opacity:0.15;}</style></defs><g id="Layer_2" data-name="Layer 2"><path class="cls-1" d="M63.52,140s-14-8.1-14-18.37,1.64-32.87,3.69-39.85,14-27.93,20.95-34.1,18.08-15.2,25.47-18.48,21.78-7,28.76-6.16,16.84,5.34,21.77,7.39,17.26,6.16,21.77,9.86S187.16,51,191.68,60.81s4.52,17.25,6.58,23.41,3.69,17.67,0,27.12-9.45,22.59-17.67,28.75S63.52,140,63.52,140Z"/><path class="cls-2" d="M63.52,140S50.37,123.25,55.3,98.6s8.21-35.33,14.79-41.49S87.75,37.8,94.32,35.34s15.61-8.22,26.29-7.81,19.72-2.05,32.46,6.17,14.79,11.91,23.41,20.13,15.2,18.89,15.2,27.52-4.93,28.34-4.93,34.1-6.16,24.64-6.16,24.64Z"/><path class="cls-3" d="M178.54,166.39c-.82,4.92-4.73,13.75-9.76,22.74h0l-.1.17c-5,8.93-11.13,18-16.43,23.5-10.69,11.09-19.31,15.61-31.23,14s-21.77-9-31.63-18.07c-6.17-5.66-11.21-13.89-14.83-21h0c-2.16-4.23-3.81-8-4.89-10.66-2.87-7-2.46-23.42-2.46-23.42-6.16-4.93-3.29-20.13-.82-24.24s2-15.2,6.57-31.63S82,72.72,89.8,61.63s29.17-21,41.91-17.25,19.71,16,26.29,22.18,17.25,34.1,20.54,51.76S180.18,156.53,178.54,166.39Z"/><path class="cls-2" d="M84.92,120.78a43.18,43.18,0,0,1,5.72.83c.71.35,8.2,3.54,10.48,4s10.19.83,14.56-.28a80.68,80.68,0,0,1-12.13-1.55c-5.18-1.22-5-1.18-6.22-1.51A39,39,0,0,0,84.92,120.78Z"/><path class="cls-2" d="M141.56,124.48s1.51,2.67,3.5,3.46,9.26.71,12.21-1.38a24.18,24.18,0,0,1,9.77-3.33,31.07,31.07,0,0,0-7.88.86c-3.28,1-1.76,1.59-4.68,2.29a26.61,26.61,0,0,1-9.08.1A8.42,8.42,0,0,1,141.56,124.48Z"/><path class="cls-2" d="M176.49,109.4S135,97,127.19,81.76s-22.19-21-26.71-16.43-33.27,62-33.27,62,.22-18.06,3.08-28.55,5-21.53,6.16-24.24,14.18-19.1,26.09-24c0,0,5.09,1.44,10.89,3.49s14.76,2.75,22.18,15.2S142.07,82.35,152,90.59C161.81,98.68,165.41,106.22,176.49,109.4Z"/><path class="cls-4" d="M102.65,50.61a24.61,24.61,0,0,0,12.21,7.73c7.81,2.06,14.38,10.69,16.85,16.44s21.36,29.16,48.88,35.74c0,0,16.43-14.79,0-41.91s-37.79-37.79-46.83-39S99.2,31.48,83.23,49.31C65.57,69,55,106.44,67.25,127.38l1-4,3.53-21.16s5.49-19.64,9.48-26.83a108.84,108.84,0,0,1,8.16-13A45.34,45.34,0,0,1,102.65,50.61Z"/><path class="cls-5" d="M99.25,121.4a4.69,4.69,0,0,0,.22,1.42c-.48-.12-1-.25-1.45-.39-8.14-2.33-12.62-1.73-13.1-1.65a70.1,70.1,0,0,1,14.89-1.6A4.66,4.66,0,0,0,99.25,121.4Z"/><path class="cls-5" d="M107.58,124.45a4.69,4.69,0,0,0,1.12-3,5.1,5.1,0,0,0-.11-1c3,.92,5.6,2.46,7.09,4.94C115.68,125.3,112.25,125.15,107.58,124.45Z"/><path class="cls-6" d="M108.7,121.4a4.69,4.69,0,0,1-1.12,3,80.82,80.82,0,0,1-8.11-1.63,4.69,4.69,0,0,1,.34-3.64,33.06,33.06,0,0,1,8.78,1.18A5.1,5.1,0,0,1,108.7,121.4Z"/><path class="cls-5" d="M147.21,126.78c-2.65-.31-5-1.08-5.65-2.3,0,0,.3-1.81,5.32-2.06a4.62,4.62,0,0,0-.39,1.86A4.74,4.74,0,0,0,147.21,126.78Z"/><path class="cls-5" d="M167,123.23c-1.64,0-7.79,0-10.28,2.07a4.42,4.42,0,0,1-1.14.69,4.64,4.64,0,0,0,.32-1.71,4.56,4.56,0,0,0-.27-1.58C159.79,122.87,162.86,123,167,123.23Z"/><path class="cls-6" d="M155.94,124.28a4.64,4.64,0,0,1-.32,1.71,18.42,18.42,0,0,1-8.41.79,4.74,4.74,0,0,1-.72-2.5,4.62,4.62,0,0,1,.39-1.86,25.6,25.6,0,0,1,2.9,0c2.26.12,4.17.2,5.89.27A4.56,4.56,0,0,1,155.94,124.28Z"/><path class="cls-7" d="M102.14,170.91s4.67,2.73,5.93,4.94a17.75,17.75,0,0,0,9,7,41.28,41.28,0,0,0,12,1.57c4.56,0,6.86-.4,9.6-2.45,3.43-2.56,5.46-7.13,7.5-8.16,0,0-7.58,3-9.51,3.36s-9.49,1.07-11.44.83a55.82,55.82,0,0,1-7.91-2.2c-.62-.29-5.65-1.36-8.81-2.69A56.4,56.4,0,0,0,102.14,170.91Z"/><path class="cls-8" d="M150.19,172.14c-2.05.41-9,4.1-11.5,5.75s-10.27,1.23-12.74,1.23a24.7,24.7,0,0,1-11.5-3.29,62.25,62.25,0,0,0-10.52-4.36c4.9,1.12,17.09,2.31,17.09,2.31s11.1,1.23,12.74,1.23,14-2.75,16.12-3.21C150.94,171.82,151.18,171.94,150.19,172.14Z"/><path class="cls-2" d="M154.71,182.82c.41-9.86,3.29-10.68,3.29-10.68s8.62-4.11,2.87-9A68.15,68.15,0,0,1,151,152.42s6.17,9,6.17,11.09-2.06,5.75-3.29,9S154.71,182.82,154.71,182.82Z"/><path class="cls-2" d="M90,169c-2-6,12.11-16.53,12.11-16.53s-10.87,11-10.42,14.64a9.73,9.73,0,0,0,3,5.49l-3.44-2.07A2.81,2.81,0,0,1,90,169Z"/><path d="M88.16,108.05s16-2,23.83,2.47,7.68-5,3.69-5.76C108.7,103.53,91.86,106,88.16,108.05Z"/><path d="M108.91,103.74s-16.64.61-21.16,3.9c0,0-5.34-3.7-.82-4.52S101.92,102.09,108.91,103.74Z"/><path d="M138.69,113.39s4.11-5.34,13.14-6.16,12.33,1.23,15.62,3.29c0,0-1.65,1.23-5.76.41L158,108.05l2.05,2.88S156.35,113.39,138.69,113.39Z"/><path class="cls-9" d="M150.19,171.73l-.31.07c-2.12.46-14.62,3.21-16.12,3.21S121,173.78,121,173.78s-12.19-1.19-17.09-2.31l-1.79-.56h0s6.57-.41,10.27-.41,10.68,0,13.14.82a15.27,15.27,0,0,0,8.63,0C136.64,170.49,144.44,171.31,150.19,171.73Z"/><path class="cls-9" d="M103.93,171.47a7.27,7.27,0,0,1-1.79-.56Z"/><path class="cls-2" d="M111.23,146.65l2.94,0c-5.61,3.64-6.5,7.66-4.33,9s11.64,2,14.54,4.69c5.48,5,10,2.13,10,2.13s-4.52,4.93-10.68,2.06c-5-2.33-2.14,0-10.76-2.91-7.07-2.35-9.38-3.83-9.85-6.91a6.05,6.05,0,0,1,1.26-4.73A9.33,9.33,0,0,1,111.23,146.65Z"/><path class="cls-10" d="M135.81,161.87a7,7,0,0,0,5.34-.83c2.88-1.64,1.24-2.46,3.29-3.69a9.44,9.44,0,0,0,3.11-3.15s-.61,1.74-4.74,3.06S136.22,161,135.81,161.87Z"/><path class="cls-2" d="M110.47,156s5.19,4,8.09,3.84a24.74,24.74,0,0,0,4.31-.44,23,23,0,0,0-3.94-1.35c-.78-.21-2.36-.57-3.21-.75C113.65,156.84,111.93,156.43,110.47,156Z"/><path class="cls-11" d="M65.55,149.68a52.19,52.19,0,0,1-.19-6.56c.11-6.55,1.85-14.81,4.57-11.67,0,0-.69-3.82-2.67-.87S63.18,144.46,65.55,149.68Z"/><path class="cls-7" d="M168.68,189.31c-5,8.93-11.13,18-16.43,23.5-10.69,11.09-19.31,15.61-31.23,14s-21.77-9-31.63-18.07c-6.17-5.66-11.21-13.89-14.83-21,.27.34,10.12,12.34,16.86,19.37,4.53,4.74,12.58,9.35,22.44,11.75,7.76,1.89,19,3.25,27.82-1.36C147.94,214.23,166.27,193.39,168.68,189.31Z"/><path d="M168.78,189.14h0l-.1.17Z"/></g></svg>