<svg id="Layer_1" data-name="Layer 1" xmlns="http://www.w3.org/2000/svg" viewBox="0 0 300 300"><defs><style>.cls-1{fill:#106cff;}</style></defs><path class="cls-1" d="M181.74,23.07c2.24,1.15,4.66,2,6.67,3.49a17.53,17.53,0,0,1,7.56,17c-.22,1.92-1.77,3.77-3,5.46-.74,1-2,1.67-3.23,2.62l2.39,3.23c4.42-2.54,8.48-5.5,13-7.34C218.25,42.16,231,43.51,243,51c3.2,2,4,4,2.48,6.19s-3.48,2.1-6.51.15a33.32,33.32,0,0,0-38.69,1.49c-3.22,2.46-6.35,5-9.5,7.56l-38.63,31c-.51.41-1,.82-1.56,1.21-2,1.48-4.12,1.34-5.52-.34s-1.2-3.75.76-5.42c2.12-1.82,4.32-3.53,6.61-5.39l-3.18-4.06a20,20,0,0,0-1.73,1.28c-3.78,3.5-8,3.54-12.38,1.44-7.24-3.46-10.93-9.29-11.29-17.23a8.62,8.62,0,0,1,3.5-7.56c4-3.12,8.1-6.27,12.15-9.39a8.92,8.92,0,0,1,8.21-1.4A19.16,19.16,0,0,1,161.77,68.8a9,9,0,0,1-3.72,7.72c-.92.68-1.8,1.4-2.84,2.22l3.11,4,28.3-22.7-2.75-3.57c-.37.11-.55.11-.66.2-7.27,5.43-14,4.6-20.25-2.58a17.06,17.06,0,0,1-4.36-14.2,9.86,9.86,0,0,1,3.27-5.52c4.8-4,9.92-7.57,14.91-11.31Zm7,19a11.46,11.46,0,0,0-7.85-11,4,4,0,0,0-3.07.51q-5.42,3.88-10.55,8.15a4.09,4.09,0,0,0-1.3,2.86,11.08,11.08,0,0,0,7.86,10,3.91,3.91,0,0,0,2.92-.47c3.67-2.66,7.24-5.45,10.77-8.28A6,6,0,0,0,188.7,42.07ZM154.13,69c-.17-5.46-3.59-9.92-8-11a3.62,3.62,0,0,0-2.7.53q-5.49,4-10.77,8.32a3.62,3.62,0,0,0-1.13,2.48,10.82,10.82,0,0,0,8,10.37,3.52,3.52,0,0,0,2.63-.46q5.4-3.93,10.6-8.15A6.56,6.56,0,0,0,154.13,69Z"/><path class="cls-1" d="M120.74,105.77l3.36,4.41c2.11-1.69,4.08-3.28,6.07-4.86,3-2.35,5.06-2.49,6.66-.44s.9,4-1.86,6.25q-22.89,18.39-45.8,36.76-7.33,5.9-14.7,11.77a7,7,0,0,0-2.61,7.71c2.19,9,4.31,17.94,6.65,26.86a12.23,12.23,0,0,0,2.83,5.05C85.76,204,90.41,208.43,95,213c2.26,2.28,2.48,4.27.73,6s-3.83,1.47-6.05-.74l-12.9-12.93-5.41,4.7,33.78,33.78,4.69-5.32c-2.08-2.1-4.12-4.14-6.13-6.2s-2.21-4.18-.5-5.86,3.76-1.41,5.86.61c1.25,1.21,2.45,2.46,3.69,3.68,3.43,3.37,6.39,3.71,10.4,1.05,8.32-5.52,17.17-9.94,27.09-11.54a94,94,0,0,1,14.54-.77c5.2,0,6.92-1,8.66-5.88L205,124.93c2-5.66,4.9-7.34,10.79-6.31,17.07,3,34.86-9.7,37.84-26.92A33.68,33.68,0,0,0,251,71c-.78-1.63-1.07-3.4.4-4.53a5.23,5.23,0,0,1,4-1c1.09.31,2.12,1.76,2.67,2.94,10.48,22.4-1.6,49.06-25.44,56.29a42.16,42.16,0,0,1-19.78,1.07c-.94,2.58-1.88,5.11-2.78,7.65q-14.87,41.67-29.72,83.35c-2.67,7.47-8.19,10.91-16,10.2-11.45-1-21.85,2.3-31.66,7.87-2.08,1.18-4,2.69-6.11,3.76a19.47,19.47,0,0,1-6.42,2.35,6.86,6.86,0,0,0-4.84,2.81Q101.61,259.34,88,274.89c-1.22,1.4-2.55,2.4-4.5,1.92-2.86-.71-3.62-4-1.46-6.5,5.35-6.19,10.76-12.33,16.13-18.49.48-.55.93-1.13,1.26-1.53L64.83,215.74,47.91,230.53c-.93.81-1.86,1.64-2.81,2.43-2.2,1.85-4.4,1.94-5.91.26s-1.27-3.89.91-5.82c5.81-5.14,11.67-10.25,17.51-15.36,4.29-3.76,8.55-7.54,12.9-11.22a2.75,2.75,0,0,0,1-3.32c-2.48-9.65-5-19.3-7.12-29-1.27-5.76.54-10.79,5.22-14.58s9.52-7.65,14.38-11.55l-3.73-4.85a20.29,20.29,0,0,0-1.91,1.4c-3.65,3.33-7.67,3.32-12,1.46a19.08,19.08,0,0,1-11.56-17.81,8.55,8.55,0,0,1,3.29-6.91c4.16-3.26,8.35-6.48,12.54-9.71a8.68,8.68,0,0,1,7.77-1.33,19,19,0,0,1,14.3,18.32,8.94,8.94,0,0,1-3.69,7.72c-.92.68-1.8,1.42-2.82,2.24l3.66,4.74,28.31-22.69-3.43-4.49a11.58,11.58,0,0,0-1.33.94c-4.48,4.31-9.34,3.94-14.29,1-6.91-4-10.32-10.14-9.54-18.14a9.61,9.61,0,0,1,3.07-5.61c4-3.5,8.26-6.58,12.48-9.77a8.31,8.31,0,0,1,7.48-1.4c9.09,2.31,15.17,10.22,14.39,19.55-.18,2.14-1.85,4.24-3.13,6.16C123.23,104.23,121.92,104.85,120.74,105.77ZM85.15,123.18c0-5.49-3.77-10.28-8.33-11.21a3.46,3.46,0,0,0-2.44.66c-3.65,2.7-7.26,5.46-10.78,8.33a3.55,3.55,0,0,0-1.13,2.49,10.93,10.93,0,0,0,7.9,10.26,3.74,3.74,0,0,0,2.87-.45c3.61-2.61,7.13-5.34,10.6-8.14A6.34,6.34,0,0,0,85.15,123.18ZM96.92,95.64c0,5.31,3.71,10.14,8.09,11.12a3.74,3.74,0,0,0,2.71-.53q5.48-4,10.74-8.3a3.84,3.84,0,0,0,1.22-2.68,11,11,0,0,0-7.52-10,4.61,4.61,0,0,0-3.53.56c-3.56,2.51-7,5.23-10.36,8A6.76,6.76,0,0,0,96.92,95.64Z"/><path class="cls-1" d="M166.31,174.65a53.85,53.85,0,0,1-3.24,6.77,7.63,7.63,0,0,1-7.88,3.62c-2.42-.37-3.34.75-3.71,2.83-.48,2.67-.84,5.37-1.45,8a10.24,10.24,0,0,1-5.7,7.09,2.65,2.65,0,0,0-1,2.18c.34,2.95-.51,4.83-2.7,5.3-2.4.51-4-.86-4.75-3.81-.85-3.51-1.72-7-2.74-10.5a29.67,29.67,0,0,0-2-4.16l-.88,0c-.7,2.73-1.45,5.44-2.08,8.19-.3,1.28-.33,2.62-.54,3.92a3.85,3.85,0,0,1-4,3.35,3.62,3.62,0,0,1-3.41-3.85c.19-5.15,1-10.19,3.53-14.78,3.35-6.18,9.71-6.52,13.6-.67a81.16,81.16,0,0,1,4.14,8.16,18.26,18.26,0,0,0,1.49-3.31c.46-2.08.56-4.26,1.06-6.33.39-1.66.73-3.66,1.84-4.76,2.1-2.09,1.8-3.86.69-6.23a31.61,31.61,0,0,1-1.93-6.63,3.72,3.72,0,0,1,2.68-4.61c2.21-.52,3.9.59,4.63,3s1.52,5,2.42,7.51a16.33,16.33,0,0,0,1.74,2.79c2.32-1.93,2.43-4.32,2.38-6.7-.1-5.45,1.28-6.48,6.41-4.81a4.19,4.19,0,0,0,2.53-.34,3.55,3.55,0,0,1,4.73,1.47,3.25,3.25,0,0,1-.71,4.66A36,36,0,0,1,166.31,174.65Z"/><path class="cls-1" d="M159.34,109.86a14.91,14.91,0,1,1,14.72,15.21A15,15,0,0,1,159.34,109.86Zm14.8,7.55a7.42,7.42,0,0,0,7.58-7.19,7.51,7.51,0,0,0-7.23-7.57,7.41,7.41,0,0,0-7.65,7.35A7.32,7.32,0,0,0,174.14,117.41Z"/><path class="cls-1" d="M193,83a14.93,14.93,0,1,1,15,14.89A14.94,14.94,0,0,1,193,83Zm7.53-.08a7.49,7.49,0,0,0,7.35,7.45A7.61,7.61,0,0,0,215.4,83a7.41,7.41,0,0,0-7.54-7.47A7.28,7.28,0,0,0,200.54,82.92Z"/><path class="cls-1" d="M121.77,164.42a14.9,14.9,0,1,1-14.8-15A14.78,14.78,0,0,1,121.77,164.42Zm-14.86-7.52a7.47,7.47,0,0,0-7.49,7.32,7.45,7.45,0,1,0,14.9.07A7.47,7.47,0,0,0,106.91,156.9Z"/><path class="cls-1" d="M155.46,137.17a14.9,14.9,0,1,1-14.91-14.92A14.78,14.78,0,0,1,155.46,137.17Zm-14.87,7.41a7.46,7.46,0,0,0,7.43-7.37,7.45,7.45,0,1,0-14.89.07A7.37,7.37,0,0,0,140.59,144.58Z"/></svg>