<svg id="Layer_1" data-name="Layer 1" xmlns="http://www.w3.org/2000/svg" viewBox="0 0 300 300"><defs><style>.cls-1{fill:#106cff;}</style></defs><path class="cls-1" d="M82,277.11a15.17,15.17,0,0,1-2.56-2.57,4.85,4.85,0,0,1,4.35-7.33c5.11-.08,10.22,0,15.46,0a46.43,46.43,0,0,1,.36-5.83C101,254,107.07,249.05,114.77,249c4-.06,8.08,0,12.29,0,1.94-8.15,3.85-16.14,5.84-24.53h-3.18q-36.85,0-73.71,0c-10.08,0-18-5.93-20.34-15.25a27.2,27.2,0,0,1-.72-6.62q-.06-62.42,0-124.84c0-13.37,8.45-21.77,21.89-21.78q64.79,0,129.55.06a5.34,5.34,0,0,0,5.16-2.81c4.57-7.08,9.21-14.13,14.08-21,5.15-7.27,12.45-10.37,21.18-8.92,9.35,1.56,15.33,7.31,17.72,16.53a20.87,20.87,0,0,1-1.42,14c-.26.58-.5,1.18-.8,1.88a60.7,60.7,0,0,1,7,.79C258.79,58.64,265,66.6,265,76.69c.07,9.52,0,19,0,28.54q0,48.9,0,97.79c0,10.32-5.81,18.27-15.19,20.63a28.3,28.3,0,0,1-6.87.73q-36.24.08-72.47,0H167.1l5.81,24.52h10.81c10.75,0,16.76,5.92,16.9,16.63,0,.41,0,.82.08,1.63h9.05c2,0,4,0,6,0,2.83,0,4.63,1.23,5.3,3.55.71,2.5-.27,4.34-2.29,5.76-.25.18-.48.41-.72.61ZM254.93,171V77.67c0-.66,0-1.33,0-2A9.77,9.77,0,0,0,245,66c-2.81-.05-5.63.1-8.43-.06a4.58,4.58,0,0,0-4.19,1.94q-20.39,25-40.92,49.87c-2,2.39-3.33,4.53-1.9,7.68a10.1,10.1,0,0,1,.45,3.43c.89,13.17-7.38,23.62-18,25.63-4.72.9-9.7.74-14.54.59-7.31-.24-14.13.45-19.86,5.75-2.84,2.63-6.95,1.18-8-2.64-2.5-9.29-4.09-18.68-3-28.4,1.93-17.46,13.94-28.81,31.35-29.51a4.22,4.22,0,0,0,2.92-1.59c7-10.24,13.86-20.56,20.75-30.87a19,19,0,0,0,.93-1.83h-2.82c-41,0-82.06.1-123.1-.1-6.83,0-11.71,4.43-11.66,11.6.2,30.19.08,60.39.09,90.58,0,.88.07,1.76.11,2.54a2.5,2.5,0,0,0,.67.25c2.81,0,5.63,0,8.44.06a44.93,44.93,0,0,1,5.45.14,5,5,0,0,1-.18,9.87,36.93,36.93,0,0,1-4.21.1c-3.36,0-6.72,0-10.15,0,0,8.55-.17,16.73.08,24.89.12,4,3.91,7.52,7.9,8.12a31.45,31.45,0,0,0,4.45.25H242.27c.74,0,1.49,0,2.23,0,6.56-.3,10.36-4.17,10.42-10.74.05-6.78,0-13.57,0-20.35,0-.64-.11-1.27-.2-2.16H101.54a22.1,22.1,0,0,1-3.46-.17,4.91,4.91,0,0,1-.4-9.64,14.63,14.63,0,0,1,3.44-.29H254.93Zm-55.8-78.25,11.34-13.82c7.33-9,14.74-17.84,22-26.88A11.65,11.65,0,0,0,229,34.35c-5.52-3-11.88-1.39-15.61,4.15q-14.11,21-28.12,42a14.86,14.86,0,0,0-.72,1.35Zm-61.57,55.43c3.46-.88,6.75-2.15,10.14-2.49a140.73,140.73,0,0,1,14.09-.29c4.39,0,8.84.3,12.57-2.63,5.79-4.53,6.49-10.6,4.86-17.22a5.75,5.75,0,0,0-2-2.93c-4.11-3.19-8.5-6-12.46-9.4a10.62,10.62,0,0,0-9.75-2.47c-8.91,1.74-15.08,6.37-17.5,15.36C135.53,133.52,136.23,141,137.56,148.14ZM109.32,267h81.24c.44-6.2-1.16-7.94-7.19-7.94h-64c-1.66,0-3.31,0-5,0a4.91,4.91,0,0,0-5,4.76C109.24,264.84,109.32,265.84,109.32,267Zm47.48-42.47H143.18c-1.92,8.08-3.82,16.07-5.75,24.21h25.13Zm25.21-111,10.76-13.09-14-10.37-9.41,14.09Z"/><path class="cls-1" d="M84,176a5,5,0,1,1-9.9,0,5,5,0,1,1,9.9,0Z"/></svg>