<svg id="Layer_1" data-name="Layer 1" xmlns="http://www.w3.org/2000/svg" viewBox="0 0 300 300"><defs><style>.cls-1{fill:#106cff;}</style></defs><path class="cls-1" d="M245.74,102.81a4.81,4.81,0,0,0-8-1.71c-2.35,2.17-4.5,4.56-6.74,6.84l-13.91,13.88c-2.66,3.93-6.15,3.89-10,2.14a2.7,2.7,0,0,0-1-.23c-4.78-.25-6.37-3.09-7.64-7.46-1.45-5-1.51-8.8,3.17-11.78a2.19,2.19,0,0,0,.43-.59c6.39-6.32,12.83-12.58,19.13-19,2.77-2.8,1.82-6.75-1.84-8.23a35.43,35.43,0,0,0-6.35-2c-3.69-.74-7.44-1.19-11.16-1.77-.07-.57-.13-1.14-.2-1.71V52.38c0-2.47.14-4.94.06-7.41a22.47,22.47,0,0,0-14.92-20.48c-4.71-1.75-9.57-1.37-14.43-1.28H85.47c-3.37,0-6.76-.29-10.11,0s-6.9,1.1-10.35,1.69a21.92,21.92,0,0,0-13.17,14.6Q51.4,48.66,51,57.83V224.88q0,12.41,0,24.78c0,1.06-.14,2.13-.14,3.18,0,12,6.24,20.24,17.75,23.56a5.29,5.29,0,0,1,1,.53H182.83c.41-.18.84-.33,1.24-.53l9.68-5c6.25-5.15,8.57-11.88,7.95-19.78q0-12.39,0-24.78v-59l3-.51a40,40,0,0,0,18.49-4.92,42.6,42.6,0,0,0,18.33-16.4,41.79,41.79,0,0,0,7.35-20.84C249.94,117.47,248.45,110,245.74,102.81ZM127.7,33h30.17c-.9,2.83-1.71,5.36-2.59,8.15H103.85c-5.11.92-8-1.12-8.5-6.35a5.42,5.42,0,0,0-.88-1.7ZM192,219.43q0,12.39,0,24.78c0,2.7-.24,5.42-.08,8.1a14.18,14.18,0,0,1-5,12.24,16.38,16.38,0,0,1-9.83,2.5c-3.53-.12-7.05,0-10.59.05h-70c-7.12,0-14.23,0-21.34-.09-1.41,0-2.81-.11-4.21-.18a14,14,0,0,1-9.74-9.23q-.18-11-.37-22.1c0-1.06-.07-2.12-.11-3.18V65.76q0-9.92,0-19.83c.49-7,4.32-11.08,10.92-12.88H84.35c1.42,4.38,2.82,8.73,4.26,13.07,1.29,3.94,2.48,4.81,6.62,4.8,5.36,0,10.72-.06,16.07-.09h34.28c4.45,0,8.89.09,13.33.08a4.73,4.73,0,0,0,4.76-3.59c1.08-3.26,2.1-6.55,3.15-9.82,1.71-4.46,1.71-4.45,6.61-4.46l6.92,0c7.29,1.8,10.52,5.12,11.58,11.95q0,9.16,0,18.33c0,3-.2,5.94-.06,8.89.07,1.72-.54,2.28-2.13,2.87-4.05,1.47-8,3.31-12,5a44,44,0,0,0-18,19.38,40.45,40.45,0,0,0-4.7,15.41c0,4.24-.6,8.61.24,12.68.9,4.36,1,7.86-2.94,10.58q-4.93,4.92-9.86,9.85l-11.31,11.25a80.61,80.61,0,0,0-6.09,6,68.72,68.72,0,0,0-4.41,6.63c-2.34,4.54-2.52,9.32-1.47,14.19,2.83,13.14,17.85,21.22,29.78,16,5.45-1.48,8.94-5.6,12.59-9.48q6.15-6.15,12.3-12.31c.63-.71,1.22-1.47,1.91-2.14,2.31-2.27,4.66-4.5,7-6.74a50,50,0,0,0,3.64-3.49c1.42-1.66,2.9-2.62,5.48-1Zm41.9-79.35a41.61,41.61,0,0,1-17.28,14.85,44.18,44.18,0,0,1-19.85,2.59,61.56,61.56,0,0,0-8.11-2,6.79,6.79,0,0,0-4.69,1.17,90.25,90.25,0,0,0-7.12,7.12l-10.38,10.34-11,11c-1,.95-2.11,1.85-3.05,2.87-2.7,2.91-5.7,5.27-9.82,5.73-9,.39-15.4-6.87-13.71-15.87a57.09,57.09,0,0,1,3.9-6.26c1.77-2.21,3.91-4.13,5.89-6.17l10.09-10c.75-.83,1.44-1.72,2.24-2.5,2.64-2.6,5.33-5.16,8-7.74a76.84,76.84,0,0,0,6.65-6.61,6.78,6.78,0,0,0,1.22-4.72c-.51-3.73-1.53-7.39-2.35-11.07-.54-6.25,1.17-12.08,3.37-17.82a39.64,39.64,0,0,1,16.79-17.58c7.33-3.43,14.95-5,23.48-3.51L195.26,97a98.28,98.28,0,0,0-7.5,7.5,6.25,6.25,0,0,0-1.11,4.73c1.35,6,3.08,11.94,4.69,17.9a5.27,5.27,0,0,0,4,4c5.89,1.57,11.8,3.09,17.68,4.72a5.08,5.08,0,0,0,5.23-1.32c1.94-1.9,3.8-3.88,5.7-5.83l13.9-13.86c.35.1,1,.14,1,.31a23.47,23.47,0,0,1,.35,2.67A39.42,39.42,0,0,1,233.88,140.08Z"/><path class="cls-1" d="M141.05,238.71A14.2,14.2,0,0,0,130,227.55c-5.71-1.36-10.8,0-14.75,4.63a15,15,0,0,0,20.9,21.39A14,14,0,0,0,141.05,238.71Zm-11.88,8c-2.47,1-4.84,1.05-6.72-1.12s-1.53-4.49-.18-6.8c3.77-2.79,7.69-2,9,1.84C132.15,243.19,130.94,245,129.17,246.69Z"/></svg>