<svg id="Layer_1" data-name="Layer 1" xmlns="http://www.w3.org/2000/svg" viewBox="0 0 500 500"><path d="M305.52,28c3.91,2,8.16,3.56,11.67,6.12,10,7.28,14.61,17.45,13.21,29.71-.38,3.35-3.08,6.6-5.21,9.55-1.3,1.8-3.53,2.92-5.65,4.59l4.18,5.64c7.73-4.44,14.83-9.61,22.73-12.84,22.92-9.37,45.15-7,66.18,6.06,5.6,3.49,6.92,7,4.34,10.82-2.45,3.59-6.08,3.67-11.38.26a58.31,58.31,0,0,0-67.68,2.62c-5.63,4.29-11.1,8.79-16.61,13.22L253.73,158c-.9.73-1.81,1.45-2.74,2.13-3.54,2.58-7.2,2.34-9.64-.61s-2.11-6.55,1.32-9.48c3.71-3.17,7.56-6.17,11.56-9.42l-5.56-7.09a33.93,33.93,0,0,0-3,2.22c-6.61,6.13-13.93,6.2-21.65,2.52-12.67-6-19.13-16.24-19.75-30.14a15.07,15.07,0,0,1,6.12-13.21c7.09-5.47,14.16-11,21.25-16.43C236,75.1,240.8,74.63,246,76a33.52,33.52,0,0,1,24.61,32c0,5.51-2,10.13-6.5,13.49-1.6,1.19-3.15,2.46-5,3.88,1.86,2.41,3.51,4.55,5.43,7l49.5-39.71-4.8-6.24a5.1,5.1,0,0,0-1.17.35c-12.71,9.5-24.51,8-35.41-4.51-6.2-7.13-9.08-15.58-7.63-24.84a17.26,17.26,0,0,1,5.73-9.66c8.38-7,17.34-13.24,26.07-19.79Zm12.16,33.24c0-9.14-5.86-17.06-13.71-19.32a7.09,7.09,0,0,0-5.38.88Q289.13,49.57,280.13,57a7.16,7.16,0,0,0-2.26,5,19.39,19.39,0,0,0,13.74,17.54,6.8,6.8,0,0,0,5.11-.83c6.41-4.64,12.66-9.53,18.84-14.48A10,10,0,0,0,317.68,61.21Zm-60.46,47.06c-.29-9.55-6.28-17.36-14.05-19.27a6.4,6.4,0,0,0-4.72.93q-9.6,7-18.84,14.56a6.36,6.36,0,0,0-2,4.34A18.94,18.94,0,0,0,231.68,127a6.15,6.15,0,0,0,4.61-.81q9.45-6.87,18.53-14.25C256.19,110.79,256.87,108.83,257.22,108.27Z"/><path d="M198.82,172.64l5.88,7.7c3.68-2.94,7.14-5.73,10.61-8.49,5.18-4.12,8.86-4.35,11.66-.77,2.63,3.38,1.57,7-3.27,10.93q-40,32.16-80.1,64.3-12.84,10.31-25.71,20.58c-4.43,3.53-5.89,8.05-4.57,13.49,3.82,15.68,7.53,31.38,11.63,47a21.29,21.29,0,0,0,5,8.82c7.73,8.2,15.87,16,23.81,24,4,4,4.33,7.47,1.27,10.54s-6.69,2.57-10.57-1.3c-7.46-7.43-14.89-14.9-22.57-22.6l-9.46,8.21,59.07,59.1,8.21-9.32C176,401.16,172.46,397.6,169,394s-3.87-7.31-.89-10.24,6.59-2.48,10.26,1.07c2.18,2.1,4.28,4.3,6.45,6.42,6,5.9,11.17,6.5,18.19,1.85,14.56-9.66,30-17.39,47.4-20.19,8.33-1.35,16.93-1.31,25.42-1.34,9.1,0,12.11-1.78,15.15-10.3l55.35-155.1c3.54-9.92,8.56-12.85,18.87-11.06,29.85,5.21,61-17,66.18-47.07a58.85,58.85,0,0,0-4.75-36.29c-1.37-2.85-1.87-5.94.7-7.91,1.8-1.38,4.9-2.31,7-1.74,1.9.54,3.69,3.07,4.66,5.14,18.33,39.18-2.8,85.82-44.5,98.47a73.78,73.78,0,0,1-34.59,1.87c-1.64,4.51-3.29,8.94-4.87,13.38q-26,72.89-52,145.78c-4.66,13.08-14.32,19.09-28.05,17.84-20-1.81-38.22,4-55.39,13.78-3.63,2.06-6.95,4.71-10.68,6.57-3.56,1.79-7.37,3.73-11.22,4.11s-6.15,2.26-8.47,4.93q-23.77,27.3-47.65,54.5c-2.13,2.44-4.46,4.2-7.87,3.35-5-1.23-6.34-7-2.55-11.37,9.36-10.82,18.81-21.56,28.21-32.34.84-1,1.62-2,2.2-2.67L101,365,71.42,390.85c-1.63,1.43-3.24,2.88-4.9,4.27-3.85,3.23-7.71,3.38-10.34.45s-2.22-6.81,1.58-10.18Q73,371.89,88.4,358.52c7.5-6.57,14.95-13.2,22.56-19.63,2-1.71,2.51-3.12,1.83-5.8-4.35-16.88-8.71-33.77-12.46-50.79-2.22-10.07.94-18.86,9.13-25.5s16.64-13.38,25.14-20.2l-6.52-8.48a40,40,0,0,0-3.34,2.45c-6.39,5.82-13.42,5.8-20.94,2.55A33.35,33.35,0,0,1,83.59,202a14.93,14.93,0,0,1,5.74-12.08c7.28-5.71,14.61-11.33,21.94-17,4.11-3.16,8.77-3.52,13.59-2.34a33.32,33.32,0,0,1,25,32.05c0,5.52-1.87,10.16-6.45,13.51-1.62,1.19-3.15,2.48-4.94,3.91l6.4,8.3,49.52-39.7-6-7.84a19.71,19.71,0,0,0-2.32,1.64c-7.84,7.54-16.33,6.88-25,1.82C149,177.17,143,166.5,144.41,152.53a16.69,16.69,0,0,1,5.37-9.82c6.9-6.12,14.45-11.52,21.82-17.1a14.57,14.57,0,0,1,13.09-2.45c15.9,4.06,26.53,17.88,25.16,34.2-.31,3.74-3.23,7.41-5.47,10.77C203.18,169.94,200.88,171,198.82,172.64Zm-62.26,30.44c0-9.6-6.58-18-14.57-19.6a6.12,6.12,0,0,0-4.27,1.15c-6.38,4.72-12.69,9.55-18.85,14.57a6.23,6.23,0,0,0-2,4.36,19.1,19.1,0,0,0,13.82,17.94,6.54,6.54,0,0,0,5-.78c6.33-4.56,12.49-9.35,18.56-14.25A10.83,10.83,0,0,0,136.56,203.08Zm20.6-48.17c.06,9.3,6.48,17.74,14.14,19.46a6.57,6.57,0,0,0,4.74-.94c6.39-4.66,12.68-9.49,18.79-14.52a6.65,6.65,0,0,0,2.13-4.68c-.2-7.81-5.74-15.3-13.15-17.54a8.06,8.06,0,0,0-6.16,1c-6.23,4.39-12.21,9.16-18.14,14A11.5,11.5,0,0,0,157.16,154.91Z"/><path d="M278.53,293.12c-1.83,3.9-3.29,8.17-5.68,11.85a13.35,13.35,0,0,1-13.77,6.32c-4.23-.65-5.85,1.32-6.49,4.95-.84,4.67-1.47,9.4-2.54,14a17.91,17.91,0,0,1-10,12.39,4.63,4.63,0,0,0-1.81,3.83c.6,5.15-.9,8.44-4.72,9.25-4.2.9-7.06-1.49-8.31-6.65-1.49-6.15-3-12.3-4.8-18.37-.75-2.54-2.26-4.86-3.43-7.28l-1.54-.07c-1.22,4.77-2.53,9.52-3.64,14.32-.51,2.24-.56,4.58-.93,6.86A6.73,6.73,0,0,1,204,350.4a6.33,6.33,0,0,1-6-6.72c.34-9,1.83-17.84,6.17-25.86,5.86-10.81,17-11.41,23.79-1.18,2.75,4.16,4.58,8.93,7.25,14.27,1-2.18,2.18-3.89,2.6-5.78.81-3.65,1-7.45,1.85-11.08.69-2.91,1.29-6.39,3.22-8.32,3.67-3.66,3.16-6.76,1.21-10.91-1.69-3.6-2.5-7.66-3.38-11.58a6.52,6.52,0,0,1,4.7-8.07c3.87-.91,6.82,1,8.1,5.19,1.34,4.4,2.65,8.81,4.22,13.13.61,1.67,1.9,3.08,3.05,4.89,4.07-3.38,4.25-7.56,4.17-11.71-.18-9.54,2.22-11.33,11.21-8.43a7.3,7.3,0,0,0,4.43-.58c3.54-1.4,6.33-.45,8.26,2.56s1.5,6.14-1.24,8.16S281.66,291.54,278.53,293.12Z"/><path d="M266.33,179.79a26.2,26.2,0,0,1,26.4-25.94c14.58.2,26,12.14,25.78,27-.19,14-12.42,25.84-26.42,25.53A26.21,26.21,0,0,1,266.33,179.79ZM292.22,193a13,13,0,0,0,13.26-12.57,13.14,13.14,0,0,0-12.65-13.24A13,13,0,0,0,279.45,180,12.8,12.8,0,0,0,292.22,193Z"/><path d="M325.24,132.8a26.11,26.11,0,1,1,26.24,26.06A26.12,26.12,0,0,1,325.24,132.8Zm13.16-.13a13.11,13.11,0,0,0,12.85,13,13.3,13.3,0,0,0,13.14-12.85,13,13,0,0,0-13.18-13.08A12.75,12.75,0,0,0,338.4,132.67Z"/><path d="M200.62,275.23A26.06,26.06,0,1,1,174.73,249,25.85,25.85,0,0,1,200.62,275.23Zm-26-13.15a13,13,0,0,0-13.09,12.8,13,13,0,1,0,26.06.12A13,13,0,0,0,174.62,262.08Z"/><path d="M259.56,227.55a26.07,26.07,0,1,1-26.09-26.1A25.89,25.89,0,0,1,259.56,227.55Zm-26,13a13,13,0,0,0,13-12.88,13,13,0,1,0-26,.12A12.88,12.88,0,0,0,233.55,240.51Z"/></svg>