<svg id="Layer_1" data-name="Layer 1" xmlns="http://www.w3.org/2000/svg" viewBox="0 0 500 500"><path d="M127.26,479.36c-1.56-1.53-3.52-2.82-4.62-4.64-3.58-5.9.7-13.1,7.86-13.22,9.21-.14,18.44,0,27.89,0,.21-3.77,0-7.22.65-10.52,2.55-13.32,13.5-22.22,27.39-22.41,7.29-.1,14.59,0,22.18,0l10.54-44.24H213.4q-66.5,0-133,0c-18.2,0-32.48-10.71-36.7-27.53a49.86,49.86,0,0,1-1.3-12q-.1-112.62,0-225.25c0-24.13,15.24-39.3,39.51-39.3q116.88,0,233.76.11c4.48,0,6.95-1.44,9.3-5.09,8.26-12.77,16.62-25.49,25.42-37.89,9.29-13.11,22.46-18.72,38.21-16.09,16.87,2.82,27.66,13.19,32,29.83,2.26,8.68,1.06,17.16-2.56,25.31-.47,1.06-.91,2.12-1.44,3.39,4.43.47,8.64.51,12.66,1.43,17.11,3.92,28.26,18.27,28.39,36.49.13,17.17,0,34.33,0,51.5q0,88.23,0,176.44c0,18.62-10.5,33-27.42,37.24a51.55,51.55,0,0,1-12.4,1.32q-65.39.13-130.76.06h-6.18c3.56,15,7,29.47,10.49,44.24h19.51c19.39,0,30.24,10.68,30.49,30,0,.75.07,1.49.14,2.94h16.34c3.59,0,7.17,0,10.75,0,5.1,0,8.35,2.21,9.56,6.4,1.29,4.5-.48,7.83-4.12,10.4a16.67,16.67,0,0,0-1.3,1.09ZM439.34,287.82V119.48c0-1.19,0-2.39-.07-3.58-.53-10.12-7.81-17.23-17.9-17.41-5.07-.08-10.16.19-15.22-.09-3.32-.18-5.46.92-7.56,3.5q-36.78,45.1-73.83,90c-3.57,4.3-6,8.17-3.43,13.85.82,1.81.68,4.1.82,6.18,1.59,23.77-13.33,42.63-32.46,46.26-8.51,1.62-17.49,1.34-26.24,1.05-13.17-.43-25.48.82-35.82,10.39-5.13,4.74-12.55,2.12-14.4-4.77-4.52-16.77-7.39-33.71-5.45-51.24,3.48-31.51,25.16-52,56.56-53.25a7.68,7.68,0,0,0,5.28-2.88c12.61-18.48,25-37.1,37.43-55.69a35.51,35.51,0,0,0,1.69-3.32h-5.09c-74,0-148.08.18-222.12-.18-12.34-.06-21.14,8-21.05,20.94.36,54.48.15,109,.16,163.45,0,1.59.14,3.17.2,4.59a5.11,5.11,0,0,0,1.21.45c5.08,0,10.15.06,15.23.11a78.47,78.47,0,0,1,9.83.25A8.77,8.77,0,0,1,95,297.37c-.17,4.53-3.32,7.94-8.19,8.51a68.69,68.69,0,0,1-7.6.19c-6.06,0-12.12,0-18.31,0,0,15.43-.31,30.19.14,44.92.21,7.18,7,13.57,14.25,14.64a55.34,55.34,0,0,0,8,.45q166.59,0,333.18,0c1.34,0,2.69,0,4,0,11.83-.54,18.7-7.53,18.79-19.38.11-12.24,0-24.48,0-36.72,0-1.15-.2-2.3-.35-3.9h-6.38q-135,0-270,0a39.3,39.3,0,0,1-6.24-.31,8.87,8.87,0,0,1-.71-17.39,26.16,26.16,0,0,1,6.2-.52q135.69,0,271.39,0ZM338.64,146.63c7.06-8.6,13.78-16.76,20.48-24.94,13.23-16.15,26.6-32.19,39.62-48.51a21,21,0,0,0-6.28-31.86c-10-5.44-21.44-2.51-28.17,7.49q-25.47,37.83-50.74,75.79a24.43,24.43,0,0,0-1.3,2.44Zm-111.09,100c6.25-1.6,12.19-3.89,18.29-4.51,8.41-.84,17-.52,25.43-.52,7.92,0,16,.54,22.69-4.74,10.44-8.18,11.72-19.12,8.77-31.07a10.51,10.51,0,0,0-3.57-5.29c-7.42-5.76-15.34-10.89-22.49-17-5.39-4.57-10.75-5.8-17.6-4.47-16.06,3.15-27.21,11.5-31.58,27.73C223.88,220.26,225.16,233.67,227.55,246.65Zm-51,214.49H323.19c.8-11.19-2.1-14.32-13-14.32H194.69c-3,0-6-.08-8.95.05-5.29.23-8.57,3.32-9.11,8.58C176.45,457.22,176.6,459,176.6,461.14Zm85.68-76.64H237.7c-3.47,14.58-6.9,29-10.39,43.69h45.35C269.16,413.47,265.76,399.16,262.28,384.5Zm45.48-200.24,19.41-23.62-25.24-18.7-17,25.41Z"/><path d="M130.82,296.82a8.93,8.93,0,1,1-17.86.08,8.93,8.93,0,1,1,17.86-.08Z"/></svg>